<mxfile host="65bd71144e">
    <diagram id="0HDwP3cqteO5j3hUWddd" name="Page-1">
        <mxGraphModel dx="1065" dy="427" grid="1" gridSize="10" guides="1" tooltips="1" connect="1" arrows="1" fold="1" page="1" pageScale="1" pageWidth="850" pageHeight="1100" math="0" shadow="0">
            <root>
                <mxCell id="0"/>
                <mxCell id="1" parent="0"/>
                <mxCell id="2" value="" style="edgeStyle=none;orthogonalLoop=1;jettySize=auto;html=1;endArrow=classic;startArrow=classic;endSize=8;startSize=8;" edge="1" parent="1">
                    <mxGeometry width="100" relative="1" as="geometry">
                        <mxPoint x="180" y="20" as="sourcePoint"/>
                        <mxPoint x="180" y="380" as="targetPoint"/>
                        <Array as="points"/>
                    </mxGeometry>
                </mxCell>
                <mxCell id="4" value="&lt;font style=&quot;font-size: 24px;&quot; face=&quot;Comic Sans MS&quot; color=&quot;#8ff4ff&quot;&gt;Single Thread&lt;/font&gt;" style="text;strokeColor=none;align=center;fillColor=none;html=1;verticalAlign=middle;whiteSpace=wrap;rounded=0;rotation=-90;" vertex="1" parent="1">
                    <mxGeometry x="50" y="180" width="190" height="30" as="geometry"/>
                </mxCell>
                <mxCell id="5" value="Time line of our class&lt;br&gt;" style="text;strokeColor=none;align=center;fillColor=none;html=1;verticalAlign=middle;whiteSpace=wrap;rounded=0;fontFamily=Comic Sans MS;fontSize=24;fontColor=#8FF4FF;rotation=-90;" vertex="1" parent="1">
                    <mxGeometry x="-80" y="180" width="380" height="30" as="geometry"/>
                </mxCell>
                <mxCell id="7" value="Problem" style="text;strokeColor=none;align=center;fillColor=none;html=1;verticalAlign=middle;whiteSpace=wrap;rounded=0;fontFamily=Comic Sans MS;fontSize=24;fontColor=#8FF4FF;" vertex="1" parent="1">
                    <mxGeometry x="260" y="175" width="60" height="30" as="geometry"/>
                </mxCell>
                <mxCell id="6" value="" style="shape=singleArrow;whiteSpace=wrap;html=1;arrowWidth=0.4;arrowSize=0.4;fontFamily=Comic Sans MS;fontSize=24;fontColor=#8FF4FF;" vertex="1" parent="1">
                    <mxGeometry x="190" y="30" width="40" height="20" as="geometry"/>
                </mxCell>
                <mxCell id="10" value="" style="shape=singleArrow;whiteSpace=wrap;html=1;arrowWidth=0.4;arrowSize=0.4;fontFamily=Comic Sans MS;fontSize=24;fontColor=#8FF4FF;" vertex="1" parent="1">
                    <mxGeometry x="190" y="180" width="40" height="20" as="geometry"/>
                </mxCell>
                <mxCell id="11" value="" style="shape=singleArrow;whiteSpace=wrap;html=1;arrowWidth=0.4;arrowSize=0.4;fontFamily=Comic Sans MS;fontSize=24;fontColor=#8FF4FF;" vertex="1" parent="1">
                    <mxGeometry x="190" y="350" width="40" height="20" as="geometry"/>
                </mxCell>
                <mxCell id="13" value="Class End" style="text;strokeColor=none;align=center;fillColor=none;html=1;verticalAlign=middle;whiteSpace=wrap;rounded=0;fontFamily=Comic Sans MS;fontSize=24;fontColor=#8FF4FF;" vertex="1" parent="1">
                    <mxGeometry x="220" y="345" width="140" height="30" as="geometry"/>
                </mxCell>
                <mxCell id="14" value="Class Start" style="text;strokeColor=none;align=center;fillColor=none;html=1;verticalAlign=middle;whiteSpace=wrap;rounded=0;fontFamily=Comic Sans MS;fontSize=24;fontColor=#8FF4FF;" vertex="1" parent="1">
                    <mxGeometry x="230" y="25" width="150" height="30" as="geometry"/>
                </mxCell>
                <mxCell id="15" value="" style="edgeStyle=segmentEdgeStyle;endArrow=classic;html=1;curved=0;rounded=0;endSize=8;startSize=8;sourcePerimeterSpacing=0;targetPerimeterSpacing=0;fontFamily=Comic Sans MS;fontSize=24;fontColor=#8FF4FF;" edge="1" parent="1">
                    <mxGeometry width="100" relative="1" as="geometry">
                        <mxPoint x="340" y="400" as="sourcePoint"/>
                        <mxPoint x="350" y="190" as="targetPoint"/>
                        <Array as="points">
                            <mxPoint x="400" y="400"/>
                            <mxPoint x="390" y="400"/>
                            <mxPoint x="390" y="190"/>
                        </Array>
                    </mxGeometry>
                </mxCell>
                <mxCell id="16" value="After&amp;nbsp; the class&amp;nbsp;" style="text;strokeColor=none;align=center;fillColor=none;html=1;verticalAlign=middle;whiteSpace=wrap;rounded=0;fontFamily=Comic Sans MS;fontSize=24;fontColor=#8FF4FF;" vertex="1" parent="1">
                    <mxGeometry x="140" y="390" width="210" height="30" as="geometry"/>
                </mxCell>
                <mxCell id="97WzSQJjwlZH-kyWe2gb-16" value="&amp;nbsp;Single Thread architecture" style="text;strokeColor=none;align=center;fillColor=none;html=1;verticalAlign=middle;whiteSpace=wrap;rounded=0;fontFamily=Comic Sans MS;fontSize=24;fontColor=#8FF4FF;" vertex="1" parent="1">
                    <mxGeometry x="520" y="200" width="190" height="30" as="geometry"/>
                </mxCell>
            </root>
        </mxGraphModel>
    </diagram>
    <diagram id="t_8qBqQarv-VWlESHNod" name="Page-2">
        <mxGraphModel dx="1065" dy="427" grid="1" gridSize="10" guides="1" tooltips="1" connect="1" arrows="1" fold="1" page="1" pageScale="1" pageWidth="850" pageHeight="1100" math="0" shadow="0">
            <root>
                <mxCell id="0"/>
                <mxCell id="1" parent="0"/>
                <mxCell id="jNLL3eQVJU_eqkyzvEGM-1" value="" style="edgeStyle=none;orthogonalLoop=1;jettySize=auto;html=1;endArrow=classic;startArrow=classic;endSize=8;startSize=8;fontFamily=Comic Sans MS;fontSize=24;fontColor=#8FF4FF;" edge="1" parent="1">
                    <mxGeometry width="100" relative="1" as="geometry">
                        <mxPoint x="90" y="110" as="sourcePoint"/>
                        <mxPoint x="90" y="430" as="targetPoint"/>
                        <Array as="points">
                            <mxPoint x="90" y="270"/>
                        </Array>
                    </mxGeometry>
                </mxCell>
                <mxCell id="jNLL3eQVJU_eqkyzvEGM-2" value="function 1 Datbase&lt;br&gt;10 sec" style="text;html=1;align=center;verticalAlign=middle;resizable=0;points=[];autosize=1;strokeColor=none;fillColor=none;fontSize=24;fontFamily=Comic Sans MS;fontColor=#8FF4FF;" vertex="1" parent="1">
                    <mxGeometry x="110" y="120" width="230" height="70" as="geometry"/>
                </mxCell>
                <mxCell id="jNLL3eQVJU_eqkyzvEGM-3" value="function 2 Database&lt;br&gt;15 sec" style="text;strokeColor=none;align=center;fillColor=none;html=1;verticalAlign=middle;whiteSpace=wrap;rounded=0;fontFamily=Comic Sans MS;fontSize=24;fontColor=#8FF4FF;" vertex="1" parent="1">
                    <mxGeometry x="90" y="260" width="280" height="30" as="geometry"/>
                </mxCell>
                <mxCell id="jNLL3eQVJU_eqkyzvEGM-4" value="function 3 Datbase&amp;nbsp;&lt;br&gt;5 sec" style="text;strokeColor=none;align=center;fillColor=none;html=1;verticalAlign=middle;whiteSpace=wrap;rounded=0;fontFamily=Comic Sans MS;fontSize=24;fontColor=#8FF4FF;" vertex="1" parent="1">
                    <mxGeometry x="100" y="380" width="260" height="30" as="geometry"/>
                </mxCell>
                <mxCell id="jNLL3eQVJU_eqkyzvEGM-5" value="" style="shape=waypoint;sketch=0;size=6;pointerEvents=1;points=[];fillColor=none;resizable=0;rotatable=0;perimeter=centerPerimeter;snapToPoint=1;fontFamily=Comic Sans MS;fontSize=24;fontColor=#8FF4FF;" vertex="1" parent="1">
                    <mxGeometry x="100" y="130" width="20" height="20" as="geometry"/>
                </mxCell>
                <mxCell id="jNLL3eQVJU_eqkyzvEGM-6" value="" style="shape=waypoint;sketch=0;size=6;pointerEvents=1;points=[];fillColor=none;resizable=0;rotatable=0;perimeter=centerPerimeter;snapToPoint=1;fontFamily=Comic Sans MS;fontSize=24;fontColor=#8FF4FF;" vertex="1" parent="1">
                    <mxGeometry x="100" y="370" width="20" height="20" as="geometry"/>
                </mxCell>
                <mxCell id="jNLL3eQVJU_eqkyzvEGM-7" value="" style="shape=waypoint;sketch=0;size=6;pointerEvents=1;points=[];fillColor=none;resizable=0;rotatable=0;perimeter=centerPerimeter;snapToPoint=1;fontFamily=Comic Sans MS;fontSize=24;fontColor=#8FF4FF;" vertex="1" parent="1">
                    <mxGeometry x="100" y="250" width="20" height="20" as="geometry"/>
                </mxCell>
                <mxCell id="jNLL3eQVJU_eqkyzvEGM-9" value="synchronous" style="text;strokeColor=none;align=center;fillColor=none;html=1;verticalAlign=middle;whiteSpace=wrap;rounded=0;fontFamily=Comic Sans MS;fontSize=24;fontColor=#8FF4FF;" vertex="1" parent="1">
                    <mxGeometry x="130" y="40" width="60" height="30" as="geometry"/>
                </mxCell>
                <mxCell id="jNLL3eQVJU_eqkyzvEGM-11" value="nature of js&amp;nbsp;" style="text;strokeColor=none;align=center;fillColor=none;html=1;verticalAlign=middle;whiteSpace=wrap;rounded=0;fontFamily=Comic Sans MS;fontSize=24;fontColor=#8FF4FF;" vertex="1" parent="1">
                    <mxGeometry x="210" y="40" width="210" height="30" as="geometry"/>
                </mxCell>
                <mxCell id="jNLL3eQVJU_eqkyzvEGM-12" value="Total time take by this single thread = 10 + 15 + 5 Total time is 30sec" style="text;strokeColor=none;align=center;fillColor=none;html=1;verticalAlign=middle;whiteSpace=wrap;rounded=0;fontFamily=Comic Sans MS;fontSize=24;fontColor=#8FF4FF;" vertex="1" parent="1">
                    <mxGeometry x="480" y="245" width="320" height="30" as="geometry"/>
                </mxCell>
                <mxCell id="jNLL3eQVJU_eqkyzvEGM-14" value="Single Thread" style="text;strokeColor=none;align=center;fillColor=none;html=1;verticalAlign=middle;whiteSpace=wrap;rounded=0;fontFamily=Comic Sans MS;fontSize=24;fontColor=#8FF4FF;rotation=-90;" vertex="1" parent="1">
                    <mxGeometry x="-20" y="260" width="160" height="30" as="geometry"/>
                </mxCell>
                <mxCell id="jNLL3eQVJU_eqkyzvEGM-16" value="Async Js is better than Sync Js" style="text;strokeColor=none;align=center;fillColor=none;html=1;verticalAlign=middle;whiteSpace=wrap;rounded=0;fontFamily=Comic Sans MS;fontSize=24;fontColor=#8FF4FF;" vertex="1" parent="1">
                    <mxGeometry x="150" y="490" width="490" height="30" as="geometry"/>
                </mxCell>
                <mxCell id="jNLL3eQVJU_eqkyzvEGM-17" value="" style="whiteSpace=wrap;html=1;labelBackgroundColor=#FFFFFF;fontFamily=Comic Sans MS;fontSize=24;fontColor=#8FF4FF;fillColor=none;" vertex="1" parent="1">
                    <mxGeometry x="200" y="475" width="400" height="60" as="geometry"/>
                </mxCell>
                <mxCell id="jNLL3eQVJU_eqkyzvEGM-18" value="" style="rounded=1;whiteSpace=wrap;html=1;labelBackgroundColor=#FFFFFF;fontFamily=Comic Sans MS;fontSize=24;fontColor=#8FF4FF;fillColor=none;" vertex="1" parent="1">
                    <mxGeometry x="465" y="210" width="350" height="100" as="geometry"/>
                </mxCell>
                <mxCell id="qXuVo9tQxvBJxgZrcMBX-1" value="voice" style="text;strokeColor=none;align=center;fillColor=none;html=1;verticalAlign=middle;whiteSpace=wrap;rounded=0;labelBackgroundColor=#FFFFFF;fontFamily=Comic Sans MS;fontSize=24;fontColor=#8FF4FF;" vertex="1" parent="1">
                    <mxGeometry x="390" y="130" width="60" height="30" as="geometry"/>
                </mxCell>
                <mxCell id="qXuVo9tQxvBJxgZrcMBX-2" value="screen" style="text;strokeColor=none;align=center;fillColor=none;html=1;verticalAlign=middle;whiteSpace=wrap;rounded=0;labelBackgroundColor=#FFFFFF;fontFamily=Comic Sans MS;fontSize=24;fontColor=#8FF4FF;" vertex="1" parent="1">
                    <mxGeometry x="380" y="250" width="60" height="30" as="geometry"/>
                </mxCell>
                <mxCell id="qXuVo9tQxvBJxgZrcMBX-4" value="Screenshare" style="text;strokeColor=none;align=center;fillColor=none;html=1;verticalAlign=middle;whiteSpace=wrap;rounded=0;labelBackgroundColor=#FFFFFF;fontFamily=Comic Sans MS;fontSize=24;fontColor=#8FF4FF;" vertex="1" parent="1">
                    <mxGeometry x="380" y="380" width="60" height="30" as="geometry"/>
                </mxCell>
            </root>
        </mxGraphModel>
    </diagram>
</mxfile>